<svg xmlns="http://www.w3.org/2000/svg" viewBox="0 0 64 64" role="img" aria-label="Exstrike sniper icon">
  <defs>
    <linearGradient id="bg" x1="0" y1="0" x2="1" y2="1">
      <stop offset="0" stop-color="#2ea8ff"/>
      <stop offset="0.58" stop-color="#075ccf"/>
      <stop offset="1" stop-color="#03245f"/>
    </linearGradient>
    <filter id="shadow" x="-20%" y="-20%" width="140%" height="140%">
      <feDropShadow dx="0" dy="2" stdDeviation="1.4" flood-color="#00122e" flood-opacity="0.8"/>
    </filter>
  </defs>
  <rect width="64" height="64" rx="12" fill="url(#bg)"/>
  <rect x="4" y="4" width="56" height="56" rx="9" fill="none" stroke="#7fd5ff" stroke-opacity="0.55" stroke-width="2"/>
  <g filter="url(#shadow)" fill="#06101d">
    <rect x="9" y="31" width="42" height="6" rx="2"/>
    <rect x="47" y="32.5" width="10" height="3" rx="1.5"/>
    <rect x="18" y="37" width="15" height="5" rx="1"/>
    <rect x="30" y="39" width="5" height="13" rx="1" transform="rotate(-16 32.5 45.5)"/>
    <rect x="14" y="27" width="14" height="4" rx="1.5"/>
    <rect x="29" y="24" width="15" height="5" rx="2"/>
    <circle cx="31" cy="26.5" r="4.5"/>
    <circle cx="43" cy="26.5" r="4.5"/>
    <rect x="31" y="25" width="12" height="3"/>
    <rect x="38" y="37" width="8" height="2.5" rx="1"/>
  </g>
  <g fill="#d8f2ff" opacity="0.95">
    <rect x="10" y="29.5" width="38" height="2" rx="1"/>
    <rect x="49" y="30.5" width="8" height="1.5" rx="0.75"/>
    <circle cx="31" cy="26.5" r="1.5"/>
    <circle cx="43" cy="26.5" r="1.5"/>
  </g>
</svg>
